<?xml version="1.0" encoding="utf-8"?>
<!-- Generator: Adobe Illustrator 17.0.0, SVG Export Plug-In . SVG Version: 6.00 Build 0)  -->
<!DOCTYPE svg PUBLIC "-//W3C//DTD SVG 1.1//EN" "http://www.w3.org/Graphics/SVG/1.1/DTD/svg11.dtd">
<svg version="1.1" id="Camada_1" xmlns="http://www.w3.org/2000/svg" xmlns:xlink="http://www.w3.org/1999/xlink" x="0px" y="0px"
	 width="416px" height="114.4px" viewBox="38.77 38.77 416 114.4" enable-background="new 38.77 38.77 416 114.4"
	 xml:space="preserve">
<g id="Light">
	<g id="Tipografia_1_">
		<path id="S_1_" fill="#546E7A" d="M227.039,137.756h-42.233v-15.358h42.233c12.175,0,22.459-8.096,25.763-19.198l0,0h-67.996v-7.7
			v0.023c0-23.325,18.908-42.233,42.233-42.233h42.233v15.358h-42.233c-12.175,0-22.459,8.094-25.761,19.196h0.002h67.993v7.658
			v0.021C269.27,118.848,250.362,137.756,227.039,137.756z"/>
		<path fill="#546E7A" d="M326.861,53.29v0.05h-15.358v5.773c-5.492-3.676-12.092-5.822-19.196-5.822v0.05h-15.358v84.415h15.358
			V68.648c10.6,0,19.195,8.591,19.196,19.191v15.363h15.358l0,0l0,0V86.884c0-0.005,0,0.951,0,0.946V68.648
			c10.602,0,19.196,8.595,19.196,19.196v49.912h15.358V87.844C361.415,68.761,345.944,53.29,326.861,53.29z"/>
		<path id="N_1_" fill="#546E7A" d="M438.201,95.523c0-14.843-12.032-26.875-26.875-26.875H384.45v69.108h-15.358V53.29h42.233
			c23.325,0,42.233,18.908,42.233,42.233l-0.24,42.233h-15.117V95.523z"/>
	</g>
	<g id="Logo_1_">
		<g id="Foreground_2_">
			<g id="Bottom_cópia">
				<g id="Flooding_14_">
					
						<image display="none" overflow="visible" opacity="0.2" enable-background="new    " width="575" height="421" xlink:href="4ABDBA90.png"  transform="matrix(0.2367 0 0 0.2377 28.0056 68.0041)">
					</image>
					<g>
						<path fill="#546E7A" d="M96.007,152.005c30.928,0,56.001-25.072,56.001-56.001v-20h-24.001v20c0,17.673-14.327,32-32,32h-32
							c-13.255,0-24.001,10.746-24.001,24.001H96.007z"/>
					</g>
				</g>
				<path id="Shade_6_" opacity="0.2" fill="#263238" enable-background="new    " d="M96.007,151.005H40.031
					c-0.014,0.332-0.025,0.665-0.025,1h56.001c30.928,0,56.001-25.072,56.001-56.001v-1
					C152.008,125.933,126.935,151.005,96.007,151.005z"/>
				<g id="Tint_6_" opacity="0.2">
					<rect x="128.006" y="76.004" fill="#FFFFFF" width="24.001" height="1"/>
					<path fill="#FFFFFF" d="M64.006,129.004h32c17.673,0,32-14.327,32-32v-1c0,17.673-14.327,32-32,32h-32
						c-13.255,0-24.001,10.746-24.001,24.001h0.025C40.556,139.214,51.086,129.004,64.006,129.004z"/>
				</g>
			</g>
			<g id="Middle_cópia">
				<g id="Flooding_12_">
					
						<image display="none" overflow="visible" opacity="0.2" enable-background="new    " width="271" height="271" xlink:href="4ABDBA93.png"  transform="matrix(0.2365 0 0 0.2365 64.0073 68.0041)">
					</image>
					<g>
						<circle fill="#00C853" cx="96.007" cy="96.004" r="20"/>
					</g>
				</g>
				<path id="Shade_5_" opacity="0.2" fill="#263238" enable-background="new    " d="M96.007,115.004
					c-10.877,0-19.706-8.687-19.974-19.5c-0.005,0.168-0.026,0.331-0.026,0.5c0,11.045,8.954,20,20,20c11.045,0,20-8.954,20-20
					c0-0.169-0.021-0.332-0.025-0.5C115.713,106.316,106.883,115.004,96.007,115.004z"/>
				<path id="Tint_5_" opacity="0.2" fill="#FFFFFF" enable-background="new    " d="M96.007,77.004
					c10.877,0,19.706,8.687,19.974,19.5c0.004-0.168,0.025-0.331,0.025-0.5c0-11.045-8.954-20-20-20c-11.045,0-20,8.954-20,20
					c0,0.169,0.021,0.332,0.025,0.5C76.3,85.692,85.13,77.004,96.007,77.004z"/>
			</g>
			<g id="Top_cópia">
				<g id="Flooding_10_">
					
						<image display="none" overflow="visible" opacity="0.2" enable-background="new    " width="575" height="425" xlink:href="4ABDBA96.png"  transform="matrix(0.2367 0 0 0.2355 28.0059 32.0022)">
					</image>
					<g>
						<path fill="#546E7A" d="M96.007,40.003c-30.928,0-56.001,25.072-56.001,56.001v20h24.001v-20c0-17.673,14.327-32,32-32h32
							c13.255,0,24.001-10.746,24.001-24.001H96.007z"/>
					</g>
				</g>
				<g id="Shade_4_" opacity="0.2">
					<rect x="40.006" y="115.004" fill="#263238" width="24.001" height="1"/>
					<path fill="#263238" d="M128.007,63.004h-32c-17.673,0-32,14.327-32,32v1c0-17.673,14.327-32,32-32h32
						c13.255,0,24.001-10.746,24.001-24.001h-0.025C151.458,52.794,140.927,63.004,128.007,63.004z"/>
				</g>
				<path id="Tint_4_" opacity="0.2" fill="#FFFFFF" enable-background="new    " d="M96.007,41.003h55.976
					c0.014-0.332,0.025-0.665,0.025-1H96.007c-30.928,0-56.001,25.072-56.001,56.001v1C40.006,66.075,65.078,41.003,96.007,41.003z"
					/>
			</g>
		</g>
	</g>
</g>
</svg>
